<svg id="Layer_1" data-name="Layer 1" xmlns="http://www.w3.org/2000/svg" viewBox="0 0 775.26 810.14"><title>doodles</title><path d="M718.29,755c-16.74,16.19-43.31,17.34-65.1,14.82a159,159,0,0,1-16.07-2.71A147.44,147.44,0,0,0,615,755.64c-16.18-13.2-28.79-31.26-40.26-48.37-15.57-23.2-31.86-45.9-52-65.38-21.38-20.64-46.56-34.59-70.73-51.46-28.87-20.15-46.48-47.63-61.57-78.84-12.52-25.88-25.08-51.17-43.86-73.23-19.55-23-43.11-37.73-68.89-52.63-14.16-8.19-27.5-17.29-38.42-29.6s-19.36-26.81-27.65-41.08c-12.19-20.95-24.7-42.75-44.5-57.5-19.23-14.34-41.63-24.19-62.2-36.42-10.25-6.1-21.82-13.19-31.3-22a351.78,351.78,0,0,1-17-31.4c-11.1-23.5-22.36-53.28-14-79.37.39-1.22.85-2.39,1.33-3.55a1,1,0,0,0,.86-.61A77.88,77.88,0,0,1,53,69.82c2.06-2.84,4.17-5.22,5.54-8.16l.39-.45C70.12,41.44,98.37,38.89,119.36,40c29.07,1.48,55.74,10,81.5,23.22a464,464,0,0,1,54.59,33.45c7.85,13.5,10.4,30.24,16.44,44.78a113,113,0,0,0,32.48,44.34c17.48,14.66,37,26.67,54.38,41.47,18.18,15.5,32.15,34.52,45.41,54.24,24.2,36,48.78,67,87.07,88.82,19.54,11.12,40,21,56.46,36.69,15.49,14.75,27,32.93,38.42,50.84,11.58,18.13,23.49,36.4,39.7,50.79,16.88,15,37,25.6,54.17,40.18,4.19,7.48,8.25,15.05,12.11,22.72a528,528,0,0,1,28.43,66.57c7.33,21.47,13.36,44.06,14,66.87.47,17.82-2.82,37.16-16.18,50.07Zm-275-119.92c-29.75-31.19-57.68-64-85.76-96.72-1.44-1.68-2.9-3.33-4.34-5a1.48,1.48,0,0,0,.51-2.31c-16.83-18.92-22.17-46.27-41.15-63.3-11.28-10.12-26.19-15.57-38.73-23.95-1.5-1.66-3-3.33-4.49-5C234.88,400.6,200.14,362.4,166.86,323c-9.38-18-21.72-33.77-37.77-46.17Q113.43,257,98.53,236.53c-3.26-4.49-6.46-9.05-9.62-13.63,21.86,16.82,47.25,29.78,66.87,49.37,37.6,37.54,44,96.46,88.65,128.37C270.16,419,299.24,431.42,320,456.22c22.42,26.83,36.58,59.19,54.91,88.7C405,593.4,456.8,615.61,498.11,652.42c25.55,22.77,39.45,54.57,64.34,77.75,14,13.09,32.1,19.79,49.3,27.64,1.33,1.12,2.69,2.19,4.07,3.24-28.14-9.77-54.6-25.71-78.46-42.45-34.43-24.15-65.15-53.13-94.11-83.51ZM278,448.48c10.6,6.56,22.27,11.82,31.66,20,16.65,14.42,23.14,36.79,35,55.13-22-25.26-44.26-50.21-66.65-75.09ZM137.5,287.42a142.48,142.48,0,0,1,20,24.44q-10.1-12.14-20-24.44ZM80.11,209.64c18.36,14.43,42,25,58.9,34.34,23.86,13.26,42.11,28,57.12,51.3,15.82,24.61,27.86,52.11,49.8,72.2,23.68,21.68,55.14,32.07,79.13,53.55,24.31,21.77,41.79,49.1,55.77,78.34,13.46,28.16,26.77,57.08,50,78.7,23.09,21.47,52.62,34.32,76.55,54.77,27.74,23.68,48.38,52.8,68.57,82.87,8.25,12.3,17.48,24.74,28.28,35.31-8.55-3.66-17-7.49-24.86-12.56-27.31-17.69-40.28-47.23-61-71C482,625.68,427.14,605.6,391.61,563c-21.19-25.4-34.06-56.92-51.85-84.62-16.19-25.21-35.87-44.21-61.28-60-13.08-8.12-27.08-15.33-39-25.22-11.3-9.43-20.38-21.08-28-33.61-13.39-22.1-22.41-46.6-36.78-68.14-16.28-24.4-40-39.8-63.86-56a295.66,295.66,0,0,1-27.37-20.57q-1.74-2.62-3.43-5.27ZM341.18,165c-18.25-13-36.59-25.9-51.4-42.57q10.75,8.51,21.29,17.22,15.18,12.53,30.11,25.35Zm204,200.51c-19.13-13-41-22.44-57.25-39.41-20.57-21.43-32.34-49.45-50-73.13,37.26,36,73.16,73.49,107.24,112.54Zm97.89,124.48c-26.2-15.05-40.3-44.55-58.83-67.73-24.84-31.07-61.54-47.85-93-71-32.41-23.82-51.73-57.07-72.71-90.47C399.18,230,373.17,205,343.57,184c-23.59-16.7-71.2-39.7-69.63-73.91q3.74,2.82,7.41,5.66c16.84,24.14,42.13,40,65.66,57.12,8.58,6.22,17.09,12.67,25.43,19.35q19.28,17.16,38.19,34.72c2,1.86,4,3.73,5.94,5.59,4.79,5.1,9.42,10.35,13.84,15.75,20.56,25.1,33.28,55.84,55.79,79.45C506,348.51,533.79,358.39,555.12,377q19.92,23.26,39,47.28c16.92,21.41,33.45,43.21,49,65.68Zm32.48,51c-12-9.31-25-17.26-37.14-26.43-18.94-14.27-32.9-32.53-45.79-52.24-10.46-16-20.39-32.47-33-46.95-14-16.18-31.22-27.56-49.79-37.93-20.59-11.49-40.56-22.66-57.86-39s-30.29-35.51-43.38-55c-11.76-17.51-23.79-35.09-39.05-49.8-15.61-15-33.86-26.81-51.12-39.8-22.59-17-39-36.09-48.51-63.07-3.86-11-6.63-22.39-11.89-32.3q6.76,4.81,13.41,9.8C268,133.06,294.83,153.87,313,166.74c32.89,23.27,65.37,44.91,90.12,77.42,23.86,31.34,39.4,68,68.65,95.24,32.28,30.06,76,45.8,105.51,79.06C600,444,614.43,479.23,646.2,494.52c10.32,15.13,20.15,30.58,29.33,46.42Zm73.7,174.93c-.11-5.25-.54-10.51-1.12-15.69S746.79,689.91,746,685q-1.6-10.43-4-20.5c-1.57-6.73-3.37-13.35-5.29-19.89-20-75.42-64.06-142.67-115.28-204.08q-7.2-9.3-14.6-18.47c-14.79-18.35-30.05-36.4-45.29-54.43q-7.67-9-15.5-17.76c-26.13-29.39-53.64-57.79-80.84-86.78q-7.51-7.62-15.18-15.07c-25.56-24.87-52.29-48.58-79.07-72.81-5.83-5.38-11.59-10.72-17.43-16-35-31.66-72.33-60.36-113.4-84.09-5.09-3.33-10.18-6.64-15.35-9.88-25.73-16.12-53.22-30.21-83-36.42-25.08-5.24-55.73-8.63-79.46,3.38A39.56,39.56,0,0,0,43.13,52.68c-1.61,1.87-3.26,3.7-4.66,5.64A50,50,0,0,0,31.25,72c-5.64,12.24-6.32,26.4-4,41a143.92,143.92,0,0,0,5.45,22C55.83,219,118.44,277,169.44,342.27c4.65,6,9.43,12.09,14.42,18.2s10.22,12.27,15.75,18.53c33.45,37.82,73.12,85.17,106.67,122.9,30.51,34.3,69.38,76.86,99.72,111.31,17.53,19.92,35.24,38.82,53.68,56.47,6.15,5.9,12.38,11.65,18.7,17.32,57.48,51.44,124.73,100.13,206.26,99.12a94.8,94.8,0,0,0,19.46-2.54c18.58-4.56,33.92-15.58,41-36.82a91.66,91.66,0,0,0,4.15-30.89Z"/><path d="M151.59,153.05a51.49,51.49,0,0,0,4.25-7c11.75,18.64,33.41,28.43,46.25,46.37a2.51,2.51,0,0,0,2.48,1.06,29,29,0,0,1-5,6.5q-23.91-23.55-48-46.93Zm59.33,5.54a131.39,131.39,0,0,1-.57,14.63c-3.67-6.62-10.3-12.34-15.5-16.63-10.2-8.43-21.63-15.37-31.25-24.5a1.55,1.55,0,0,0-2.19,2.19c7.86,8.35,17.32,14.83,26.15,22.08,9.33,7.65,15.22,15.46,21.38,25.45a47.63,47.63,0,0,1-2.58,8c-13.21-18.93-35.79-28.45-48.86-47.4,3.06-7.38,4.48-15.13,5.78-23.24,13.32,15.7,34,23.72,47.64,39.39ZM186.15,86.33c7.13,4.86,11.92,16.27,15.36,23.86.26.57.48,1.16.72,1.73-10.51-7-20.22-15.21-30.78-22.13,3.34-5.17,8.09-8,14.7-3.46Zm-16.56,6.84c10.27,8,19.62,17.45,31.12,23.55a2.3,2.3,0,0,0,3.16-.81,104.12,104.12,0,0,1,4.39,15.53c-12.73-11.38-27.75-19.88-41.69-29.78a54,54,0,0,1,3-8.49Zm-4.5,15.11c.15-.84.33-1.77.55-2.74,14.39,11.85,30.89,20.87,44,34.27.48,3.63.83,7.27,1,10.92-13.62-14-33.72-21.29-46.64-36.27.33-2,.67-4.1,1.05-6.18ZM540.93,560.16q-56.44-53.6-108.82-111c-36-39.5-70.41-80.37-106.55-119.72C290,290.67,253.13,253.05,215.77,216c-3.66-3.64-7.36-7.25-11-10.88,11-10.64,13.19-27.86,13.13-42.93a2,2,0,0,0,0-2.33l0,0c0-1.14-.05-2.27-.09-3.37-.72-19.81-5-39.12-14.39-56.64C197.6,89.09,184.22,68.43,170.47,81c-5.22,4.79-7.92,12-9.47,19.17l-.05.21c-.52,2.44-.91,4.85-1.22,7.14-.15,1.16-.3,2.31-.44,3.44a1.45,1.45,0,0,0-.53,2.16l.23.34c-1.58,13.21-2.84,25.19-10.13,36.92q-30.9-30-61.84-60a1.47,1.47,0,0,0-2.08,2.07C157.19,170,235.19,240.06,306.28,317.75s136.6,159.52,212.59,232.43C559,588.67,599.39,626.56,635.43,669c2.52,3,7.87-1.06,5.47-4.22-29.23-38.46-65-71.47-100-104.63Z"/></svg>