<svg id="Layer_1" data-name="Layer 1" xmlns="http://www.w3.org/2000/svg" viewBox="0 0 942.16 562.61"><title>doodles</title><path d="M593.26,504c-20.11,0-36.46-18.22-36.46-40.6s16.35-40.61,36.46-40.61,36.46,18.21,36.46,40.61S613.36,504,593.26,504Zm0-85.22c-22.32,0-40.47,20-40.47,44.62S570.94,508,593.26,508s40.46-20,40.46-44.6-18.15-44.62-40.46-44.62Z"/><path d="M593.26,509.34c-22.59,0-41-20.47-41-45.62s18.39-45.6,41-45.6,41,20.45,41,45.6-18.38,45.62-41,45.62Zm0-95.23c-24.8,0-45,22.26-45,49.61s20.18,49.63,45,49.63,45-22.26,45-49.63-20.17-49.61-45-49.61Z"/><path d="M593.26,482.65c-9.34,0-16.94-8.52-16.94-19s7.6-19,16.94-19,16.94,8.52,16.94,19-7.6,19-16.94,19Zm0-42c-11.55,0-21,10.31-21,23s9.4,23,21,23,20.94-10.31,20.94-23-9.39-23-20.94-23Z"/><path d="M593.12,489.24c-12.61,0-22.87-11.7-22.87-26.07s10.26-26.05,22.87-26.05S616,448.82,616,463.17s-10.25,26.07-22.86,26.07Zm0-56.13c-14.82,0-26.88,13.49-26.88,30.06s12.06,30.08,26.88,30.08S620,479.76,620,463.17s-12.06-30.06-26.87-30.06Z"/><path d="M190.37,444.68c9.34,0,16.94,8.52,16.94,19s-7.6,19-16.94,19-16.94-8.52-16.94-19,7.6-19,16.94-19Zm-20.94,19c0,12.68,9.39,23,20.94,23s20.95-10.31,20.95-23-9.4-23-20.95-23-20.94,10.31-20.94,23Z"/><path d="M213.1,463.17c0,14.37-10.26,26.07-22.87,26.07s-22.86-11.7-22.86-26.07,10.25-26.05,22.86-26.05,22.87,11.7,22.87,26.05Zm-49.74,0c0,16.59,12,30.08,26.87,30.08s26.88-13.49,26.88-30.08-12.06-30.06-26.88-30.06-26.87,13.49-26.87,30.06Z"/><path d="M106.25,252.1c11.51-.44,23-.61,34.55-.95,2.58-.08,2.59-4.08,0-4-11.51.33-23,.5-34.55.94-2.58.1-2.59,4.1,0,4Z"/><path d="M109.31,236.7c11.43-.44,22.86-.61,34.29-.95,2.58-.06,2.59-4.07,0-4-11.43.33-22.86.51-34.29.95-2.58.09-2.59,4.1,0,4Z"/><path d="M113,220.06c11.27-.42,22.55-.59,33.82-.91,2.57-.08,2.58-4.08,0-4-11.27.32-22.55.48-33.82.91-2.57.09-2.58,4.11,0,4Z"/><path d="M117.14,204.37c10.84-.41,21.69-.56,32.53-.87,2.57-.06,2.58-4.07,0-4-10.84.3-21.69.45-32.53.86-2.57.1-2.58,4.1,0,4Z"/><path d="M103.67,405.28V419.4c-5.35-.14-10.69-.58-17.36-.7V406.32c5.34-1.25,12-1.2,17.36-1Zm9.31,6.63c-.17,2.45-.6,4.9-.83,7.35-1,.06-2.11.11-3.08.14-.2-.54-.06-1-1.4-1.14V405.44c1.34.06,1.78.12,2.58.19,3.48.28,2.87,4.11,2.73,6.28Zm-.72-10.07c-4.5-1.14-9.91-.63-14.5-.53s-9.43.3-13.78,1.49a2.23,2.23,0,0,0-1.68,1.93v15a2,2,0,0,0,.93,1.53,2,2,0,0,0,2,1.44c9.59.11,19.2,1.31,28.78.49a2.07,2.07,0,0,0,2-2c.19-5.61,4.26-17.33-3.74-19.32Z"/><path d="M260.74,419.22c-6.86-4.46-15.67-6-23.63-7.05-24.68-3.15-48.88-1.57-73.64-1-2.58.06-2.59,4.06,0,4,21.36-.51,42.25-1.9,63.59-.07,8.38.71,16.71,1.7,24.73,4.34a30,30,0,0,1,11.4,6.74c4,3.84,5,9.72,7,14.69,1,2.36,4.84,1.32,3.86-1.07-3.5-8.54-5.26-15.35-13.35-20.6Z"/><path d="M896.51,442.47c-6.5,5.88-16.42,7.6-25,9.25A130.36,130.36,0,0,0,873,435.17c8-1.26,21.86-3.25,22.84-12.57a1.61,1.61,0,0,0-1.48-1.88c.24-1.34.48-2.66.72-4,11,4.78,9.24,18.63,1.39,25.73Zm-37.73,18.31a1.83,1.83,0,0,0,.28-.68c3.8-19,4.7-40.53-1.95-59a8.63,8.63,0,0,1,2.53-.34,5.1,5.1,0,0,1,4.16,1.55c6.46,16.7,6.32,35.25,3.09,52.69a2.3,2.3,0,0,0-.19.73c-.29,3.67-5.48,7.82-7.92,5.08Zm-65.47,46.71c16.34-8.84,28.3-25.9,32.1-44.18,0,0,0-.08,0-.12,8.12-.76,16.23-1.75,24.41-3-4.94,27.06-30.49,42-56.53,47.31Zm-76.86-39.55q6.34-.12,12.68-.3c6.78,16.23,21.28,27.92,39.37,28.07,18.57.14,33.81-14.63,39.72-31.21q6.54-.39,13-.95c-5.72,24.92-25.89,45.16-52.28,46.21-25.58,1-45.28-18.85-52.52-41.82Zm-48.67-4.31a2.1,2.1,0,0,0-.42-.24c-5.5-2.33-8.07-9.88-3.94-14.73,3.22-3.78,11.3-2.33,15.71-2.34q15.5-.06,31-.36,35.31-.61,70.59-2.43a162.84,162.84,0,0,1-2.94,17.56,1037.54,1037.54,0,0,1-110,2.54Zm-1.15-21c-5.81-12.73-11.13-25.75-17.64-38.14-3.62-6.89-8-13.29-14.45-17.83-7.39-5.22-19.09-5.24-27.77-5.69a283.1,283.1,0,0,0-35.31.84c-6.94.52-13.89,1.15-20.8,2-7.69.95-13.1,6.75-16.74,13.16-9.77,17.24-9.38,38.79-13.34,57.73a.49.49,0,0,0,0,.12,2.49,2.49,0,0,0-.06.42c-.27,6.3-9.48,8.45-14.25,9.68-12.93,3.35-26.71,3.8-40,4.32-29.2,1.14-58.55.54-87.77.78-16.9.13-33.83.33-50.74.21a2,2,0,0,0-1.51-.81c.82.05-.08-.56-.46-1.59a36.4,36.4,0,0,1-1.54-6.17A187.73,187.73,0,0,1,322,441.15c-1.62-21.59-2-43.31-2.4-65-.47-28.2-.56-56.41-.5-84.61q59.94-1.05,119.87-1.79,34.59-.45,69.18-.82c-.18,17.46-.54,34.93-.77,52.39-.17,12.28-.86,32,15.59,33.7a1.85,1.85,0,0,0,1,.27c16.32-.06,32.66-1,49-1.59,19.29-.68,40.92-3.58,59.85.84,17.44,4.07,21.54,27.24,28.07,41.17,3.39,7.2,7.7,15.17,14.95,19.11,8.1,4.41,20.14,1.44,29,2.06,2.58.19,2.56-3.82,0-4-9.61-.67-22.76,2.81-30.59-4.06-7.66-6.71-11.5-18.45-15.28-27.56-5.66-13.64-10.6-27.19-26.29-30.86-18.29-4.28-39.32-1.41-58-.77-16.72.59-33.49,1.58-50.23,1.66a2.3,2.3,0,0,0-.73-.19c-9.59-.65-12.52-11.3-12.45-19.28.11-11.29.29-22.56.47-33.84.15-9.7.31-19.39.42-29.08q72.06-.8,144.12-1.41c19.55-.19,39.1-.32,58.66-.55,2.25,8.53,2.59,18.08,3,25.44,1,15.81.68,31.75.57,47.57-.18,27.29-1.22,54.56-2,81.83-9,.18-17.91.34-26.86.42q-9.27.11-18.53.11a21.29,21.29,0,0,0-4.48.43s0-.11,0-.16ZM374.26,515.89c16.3-8.1,28.47-24.54,33.07-42.15q11.71-.08,23.42-.08c-7,25-31.55,38.19-56.49,42.23Zm-73.59-42q6.38.27,12.76.38C319.67,490,333.1,502.05,350.51,503c18.25,1,33.53-13.25,40.05-29.14l12.61-.11c-6.73,24-26.93,43.36-52.86,43.31-24.8,0-43.15-20.92-49.64-43.2Zm50.95,18.64c-12.32.84-22.72-7.85-28.24-18.16,10.79,0,21.58-.16,32.28-.22,7.7,0,15.39-.09,23.08-.16-5.64,10.22-15.1,17.72-27.12,18.54ZM318.9,474.34c5.77,12.45,16.86,21.26,30.77,22.2,14.64,1,27.46-10.05,33.54-22.47l.05-.12,2.95,0c-6,13.71-18.39,24.23-33.79,25.09-15.68.88-28.78-11-34.67-24.69Zm-42-6.78c-12.91-3.68-13.65-18.45-19.22-28.25-8.8-15.48-29.14-14.68-44.88-15.21a393.18,393.18,0,0,0-66.4,3.47c-6.43.88-13.26,1.74-19.27,4.33s-6.19,12.55-6.89,18.05-1.49,11-4.41,15.78c-3.23,5.26-9.52,5.62-15,5.86a278.21,278.21,0,0,1-38.84-.92A89.66,89.66,0,0,1,46,467.84c-5.25-1.51-6-7-6.65-11.78a54.33,54.33,0,0,1,.85-17,32.81,32.81,0,0,1,2.6-7.78c1.61-3.37,5.27-3.7,8.62-4.14-.06,1.73-.1,3.47-.12,5.2a8.74,8.74,0,0,1-.94-1c-1.61-2-4.42.82-2.84,2.83,5.87,7.41,19.45,5.89,27.68,5.75,7.77-.13,28.65-3.13,30.5,7.86.43,2.53,4.29,1.45,3.86-1.07C107.84,436.25,94.48,436,86.21,435.8c-6.79-.12-13.57.28-20.36.1-3.3-.08-7.39-.16-10.8-1.4a1.92,1.92,0,0,0,.28-1c.29-46.23,15.16-90.54,22.67-135.8.56,0,1.12,0,1.66,0q13-.48,26.08-.9,53.15-1.81,106.3-3,51.54-1.22,103.1-2.1c0,8.06-.05,16.12,0,24.18,0,45.52-1,91.85,3.94,137.19.33,3.09.52,12.21,3.12,17.14-8-.1-16-.26-23.94-.57-7-.25-14.6-.1-21.37-2Zm1.64,4.68c-2.37,18-11.58,33.35-26.71,43.55-10.86,7.32-24.07,10.27-37.25,11.53,12.91-5.81,23.27-16.31,30.26-29.6,10.56-20,10.87-43.76,2.39-64.43a14.35,14.35,0,0,1,1.87,1.28c9.55,7.85,8.5,22.17,17,30.71a23.71,23.71,0,0,0,12.5,6.62,2.09,2.09,0,0,0-.08.34Zm-127,2.79c3.9,18.06,18.66,31.79,37.35,32.06,21,.3,35.12-16,39-35.1,3.46-16.87-1.57-33.84-15-43.89,1.49.06,3,.11,4.47.19l.06.08c14.31,12.85,17.18,32.2,12.27,50.14-5.52,20.18-23.53,32.82-44.53,31.26-17.25-1.28-29.62-15.88-34.33-31.48a50.1,50.1,0,0,1,10.81-48,2,2,0,0,0,.47-.86c1.47-.12,2.93-.24,4.4-.33-13.47,11.32-18.79,28.58-15,46Zm53.62-47.09c15.85,8.22,21.79,24.47,19.15,41.6-2.86,18.63-15.78,32.76-35.42,33.54-16.68.65-28.95-12.73-33.14-27.74a41.75,41.75,0,0,1,15.5-44.91,2,2,0,0,0,.87-1.71c7.6-.4,15.19-.56,22.6-.71q5.22-.11,10.44-.07Zm-14.7,100.42c-22.88.65-40-13.76-51.19-32.61-11-18.63-9.61-42.94-2.26-62.62a171.35,171.35,0,0,1,19.72-3.21c-11.24,13.88-14.4,32.13-9.69,49.44,4.64,17,18.6,32.11,36.68,34.23,22.27,2.63,41.61-10.46,49-31.1,6.51-18.23,3.87-39.51-9.23-53.82l4.34.37c4.14.4,9.45.76,14.14,2.1a1.48,1.48,0,0,0,.16.46,73.23,73.23,0,0,1-.76,64.09c-10,20.22-28.47,32-50.89,32.67ZM51.4,411.91a11.52,11.52,0,0,1-3.75-.39c.46-14,4.22-28,6.88-41.75a11.34,11.34,0,0,1,4.26.84,403.5,403.5,0,0,0-6.38,41.59,2,2,0,0,0-1-.29Zm26.21-133c0,.23-.1.44-.14.66a2.06,2.06,0,0,0,0,.89c-1.29,1.05-.9,3.66,1.19,3.58q118.23-4.36,236.51-7.34c0,3.66,0,7.3,0,11q-38.25.66-76.51,1.48-48.85,1.06-97.71,2.49-22.65.67-45.3,1.45l-10,.36c-3.39.12-8.91,1.43-11.75-.88-4.5-3.68-.5-10.81,3.75-13.65Zm18.52-55.35a254,254,0,0,1,21.69-54,3.2,3.2,0,0,0,.44,0c38.32-2.5,76.76-3.47,115.13-4.73q41.14-1.32,82.3-2.48c0,36.78-.35,73.57-.51,110.35q-84,2.19-168,5-32.85,1.08-65.68,2.28c4.11-18.92,9.43-37.73,14.64-56.37Zm130.3-63c-34.41,1.08-68.81,2.51-103.13,4.68,31.63-16.31,67.37-13.57,102-16.11q.48,5.73,1.15,11.43Zm6.4-23.17c.41,7.67,1,15.31,1.93,22.92l-4.34.13c-.92-7.85-1.54-15.7-2-23.59,1.46.21,2.92.38,4.37.54Zm-29.62-23.64a33.13,33.13,0,0,1,.64-5.82c1.13-4.75,5.73-7.09,10.23-8.68,12.59-4.43,26.64-5.39,39.82-6.66,28.58-2.74,57.32-4,86-5.17,48.52-2,97-4.42,145.57-6q26-.84,52-1.38c16.57-.32,33.4-1.24,50-.38,11.35.58,21.23,7.23,23.6,18.64,2,9.51-2.9,19.56-11,24.6-4.18,2.6-9.13,3.36-14,3.27a1.82,1.82,0,0,0-1.32.47h-.07c-61.21.57-122.33,2.49-183.5,4.64-34.35,1.22-68.71,1.75-103.06,2.95-26.56.93-56.52,4.06-82.15-4.56-7.85-2.65-13.35-7.24-12.82-15.9Zm-23.11,9.37a97.24,97.24,0,0,1-14.44-1.69,46.84,46.84,0,0,1-4.78-1.29,22.16,22.16,0,0,1-2.92-1.26,1.1,1.1,0,0,0,.38-.33c5.51-3.34,14.12-3.49,20.29-4.21,6.86-.79,13.74-1.31,20.6-2.08a20.55,20.55,0,0,0,2.16,11.36c-7.1-.2-14.2-.18-21.29-.5Zm22.39-21.59c-10.27,0-20.54.62-30.81.63-11.38,0-23.74.26-34.66-3.34a12.93,12.93,0,0,1-3.12-1.45l1.57-.34c4.44-.89,8.94-1.49,13.42-2.12,38-5.25,76.22-8.67,114.35-12.39C340.8,74.94,418.57,66.27,496.4,61.83q63.9-3.61,127.91-4.94c13.53-.29,27.12-.72,40.65-.2,9.7.38,19.47,1.58,29.09,2.74,9.07,1.1,20.3,2,28.69,6.46-3.47,2.57-10.2,3.49-13.58,4.34-4.58,1.18-9.21,2.15-13.87,3a1.79,1.79,0,0,0-1.58.28c-4.63.85-9.28,1.6-13.92,2.32-8.86,1.38-17.77,2.27-26.69,3-1.53.11-3,.21-4.44.27a2.23,2.23,0,0,0-.77.18c-13.06,1.09-26.12,2.08-39.07,4.12a2.21,2.21,0,0,0-.75.28c-11.79-11-35.13-8.25-49.82-8.08-58.39.7-116.76,3.09-175.07,5.93C334.81,84,286,84.11,237.91,90.35c-9.55,1.24-27.79,2.2-35.17,11.2a2.13,2.13,0,0,0-.25,0ZM204.92,56c-2.95-3.76-16.3-15-12.35-20,7.48-9.47,30.19,8.74,35.89,13.5a67.25,67.25,0,0,1,20.8,30.39q-15.88,1.58-31.75,3.21c-1.46-10-6.4-19.17-12.59-27.08Zm67.36,21.6q-9.48.92-19,1.87a70.82,70.82,0,0,0-17-28c14.93,3.48,27.76,13.28,36,26.17ZM709.05,91.19c-1.72-.19-3.45-.35-5.18-.51-4.1-6.81-10.45-10.22-17.71-11.79,3-.48,5.93-1,8.88-1.54,7.43,2.21,12,6.55,14,13.84Zm-60.87-8a2.45,2.45,0,0,0,.48,0c14.79-.6,39.05-6.1,50,7a416.83,416.83,0,0,0-85.2,1.52,21.5,21.5,0,0,0-2.4-4.57c12.32-1.89,24.72-3,37.14-4Zm96.4,17.43a62.36,62.36,0,0,1,6.74,1.76,10.51,10.51,0,0,1-1.32.72c-2.36,1.26-5,2.08-7.44,3.11-5.07,2.1-11.12,2.42-16.51,3.17-11.49,1.6-23.06,2.79-34.61,3.86q-20.76,1.92-41.6,2.94c-12.73.62-25.94-.38-38.63.82a28.4,28.4,0,0,0,3.73-19.75c-.09-.55-.21-1.07-.33-1.59,32.57-3.92,65.54-3.55,98.13,0a300.15,300.15,0,0,1,31.84,5Zm59.13,59.68C816.52,167.66,826.34,178,836,189c19.85,22.75,39.06,46.91,49.13,75.73a36.27,36.27,0,0,0-3.88-.13l-68.27.89q-52.58.66-105.17,1.16a383.92,383.92,0,0,0-15.35-67.78c-4.83-15.07-10.45-33.83-21.55-46,24.17-.56,48.34-.74,72.44,0,2.59.08,2.58-3.92,0-4-33.21-1-66.5.41-99.7,1.19q-27.81.63-55.62,1.31c-.37-3.65-.69-7.28-1-10.93,29.37-.83,58.73-2,88.11-2,30.23.05,61.54.4,91.1,7.24a136.32,136.32,0,0,1,37.47,14.57ZM512.24,272.69q45.64-.68,91.28-1.18,33.3-.35,66.6-.49c0,.94,0,1.86,0,2.8a2,2,0,0,0-2.32,3.21c4,4.12,11.72,4,15.36-.52a2.14,2.14,0,0,0-1.76-3.48c0-.7,0-1.4,0-2.13q12-.09,24.06-.22c3.84,3.07,6.42,7.41,8.18,12.31-18.47.2-36.94.33-55.41.49q-73,.69-146.08,1.45.06-6.12.08-12.24Zm-4,.07c0,4.07,0,8.13-.07,12.21q-33.46.36-66.94.77-61.07.78-122.13,1.84l0-11q94.54-2.38,189.11-3.83ZM319.69,162.21q47.21-1.35,94.42-2.55t94.17-2.38c-4,37,0,74.28,0,111.37q-94.56,1.44-189.11,3.94.12-30.79.35-61.56.15-24.39.2-48.82Zm-80.94-2q-.67-5.79-1.15-11.59c25.74-.68,51.48-1,77.22-1.32a2.26,2.26,0,0,0,.53.06,1.59,1.59,0,0,0,.53-.08c23.64-.35,47.27-.8,70.9-1.75.25,3.61.53,7.23.86,10.83,0,0,0,0,0,0q-13.78.38-27.58.72c-40.4,1.11-80.86,1.91-121.32,3.1Zm65.67-22.09c.13,1.78.09,3.54.25,5.32-22.46.3-44.92.58-67.38,1.17-.16-2.26-.31-4.51-.43-6.78l2.91.26c14.44,1.3,29,1,43.49.63q10.59-.28,21.16-.6Zm8.35-.24c.16,1.8.23,3.62.37,5.44l-4.47.05c-.15-1.79-.11-3.58-.25-5.37l4.35-.12Zm73.43-2.27c.09,2,.23,3.94.34,5.92-23.12.93-46.26,1.37-69.39,1.72-.15-1.83-.22-3.66-.38-5.49q34.71-1,69.43-2.15Zm8.34-.28c.34,7,.81,13.91,1.45,20.85l-4.35.12q-.94-10.4-1.44-20.82c1.44-.06,2.89-.1,4.34-.15Zm95.84-2.16q.33,3.26.74,6.53c-30.74.7-61.34,1.16-92.09,1.61-.12-2-.22-4.06-.22-6.1h0c22.7-.75,45.07-1.5,67.67-2.23,8-.27,16-.48,24.08-.7a1.75,1.75,0,0,0-.18.89Zm8.36,0c.21,2.11.46,4.22.72,6.33-1.45,0-2.9.06-4.34.1-.27-2.15-.52-4.28-.74-6.43a1.93,1.93,0,0,0-.36-1L499,132a1.75,1.75,0,0,0-.22,1.11ZM574,130.75c.11,2.07.27,4.12.42,6.19q-35.49,1.59-71,2.42c-.25-2.07-.5-4.14-.71-6.22a2,2,0,0,0-.5-1.19q35.88-.87,71.78-1.2Zm8.36-.11c.14,2.46.3,4.91.47,7.37a2.27,2.27,0,0,0,.1,1.39c.3,4,.64,8,1,12.06l-4.34.11q-1-10.42-1.64-20.88l4.36-.05ZM400,156c-.33-3.58-.61-7.16-.86-10.75,58.54-.87,117.08-1.74,175.57-4.34q.42,5.34,1,10.71-10.83.24-21.65.51Q477,154,400,156ZM669.7,252.62c-6.23-7.49-13.23-14.3-19.39-21.85-1.63-2-4.45.86-2.83,2.83.25.31.51.59.76.9A6.59,6.59,0,0,1,642,234c-2.54-1.54-2.82-5-2.19-7.56a5,5,0,0,1,4.21-3.89,5.23,5.23,0,0,1,4.32,2.1,1.88,1.88,0,0,0,.55,1.24q10.49,11.16,20.41,22.8c4.61,5.41,7.25,9.43,7.91,16.56a100.23,100.23,0,0,1,.1,10.4,7,7,0,0,1-3.26.28c.13-7.65.78-17.1-4.36-23.29Zm-16.46-28a2.09,2.09,0,0,0-.1-.21c-2-3.48-5.36-6.25-9.59-5.89-3.82.33-6.5,3.28-7.59,6.78-2.86,9.19,6.82,17,15,12.29q2,2.24,4,4.42l-.24.18c-7,6.28-17.89,7-24.85.3-4.15-4-4.48-11.23-5.16-16.56a53.79,53.79,0,0,1,.95-19.63c1.74-7.16,5.91-10.25,13-10.59,5.79-.28,11.52,1.87,14.74,6.78,4.56,7,3.25,17.4,3.14,25.76l-3.36-3.63Zm2,32.65c-38,0-76,1.51-113.94,1.91a3.89,3.89,0,0,0-.49,0c-3,.08-9.53,1.12-11.67-1.75-1.82-2.45-1.39-7.73-1.68-10.67-.86-8.46-1.42-17-1.79-25.49-.66-15.25-1.52-31.93,2.64-46.78,2.87-10.23,20.82-8.47,29.25-8.79,9-.35,18.05-.22,27.07-.11a2.44,2.44,0,0,0,.56.08l2.23-.05,6,.05a1.91,1.91,0,0,0,.86-.19c12.72-.29,25.42-.85,38.14-1.26,7.49-.24,15-.39,22.47-.4,9.71,0,14.65,10,18.73,17.46,6.72,12.25,10.11,26.11,12.93,39.68,1.49,7.19,2.74,14.42,4.08,21.64,1.63,8.73-4,11.72-11.17,13.15a16.42,16.42,0,0,0-2.46-4.14q-8.21-9.9-16.85-19.44a1.84,1.84,0,0,0,.49-1.34c-.32-11.61,2.21-26.87-8-35.15-8.36-6.76-25.25-5.48-29.38,5.45-3.33,8.8-3.39,17.88-2.21,27.12.87,6.84,2,13.2,7.08,18.12,8.11,7.82,21.74,5.65,29.48-1.3l.1-.12c1.61,1.73,3.21,3.47,4.76,5.24a36.33,36.33,0,0,1,4.85,6.75q-6,.3-12,.37ZM665.52,153a2.71,2.71,0,0,0,.38.49c12.09,11.55,17.64,31.05,22.67,46.42a368.93,368.93,0,0,1,15.22,66.76c-7.47.07-14.93.16-22.39.22a39.41,39.41,0,0,0-.78-7.31c4.67-.91,9.19-2.44,12.29-6.27,3.73-4.64,1.71-11,.75-16.15-3.14-17-6-34.42-13-50.33a90.79,90.79,0,0,0-12.07-20.49c-5.62-7-12.9-6.57-21.34-6.48-20,.23-39.94,1.46-59.93,1.76-12.4-.1-24.8-.34-37.2.45-6.3.38-13,.86-19,3-4.46,1.61-5.8,5.06-7,9.41-4.95,17.68-3.08,38.16-2,56.21.53,8.72.65,18.07,2.63,26.61,1.47,6.37,9.4,6.09,14.75,5.9l.24,0c38.5-.39,77-1.93,115.46-1.94,4.56-.07,9.12-.19,13.68-.45a26.21,26.21,0,0,1,1,5.35c0,.25,0,.52,0,.79q-78.88.35-157.75,1.56,0-6.33,0-12.67c-.3-32.92-3.48-65.86.08-98.72q33.93-.84,67.84-1.64c28.4-.67,56.9-1.83,85.39-2.54Zm-64.9-26.22a.57.57,0,0,0,.18,0q36.63-.88,73.27-1.22c.09,2.86-.09,5.73.16,8.59a2,2,0,0,0,0,.24c-29.18-.08-58.37,1.19-87.54,2-.14-2.09-.27-4.18-.39-6.29a29.39,29.39,0,0,0,14.27-3.35Zm77.45-1.23,4.4,0c0,2.9-.13,5.8.12,8.68a2.84,2.84,0,0,0,.06.31c-1.47,0-2.94,0-4.41,0a2.62,2.62,0,0,0,0-.28c-.26-2.87-.07-5.76-.17-8.63ZM608,121.17a1.86,1.86,0,0,0,.68,0c7-.84,14.25-.28,21.3-.39,8-.13,16-.46,23.93-.88,15.45-.79,30.88-2,46.27-3.58A25.46,25.46,0,0,1,685,121a2.11,2.11,0,0,0-2.26.48q-38.14.36-76.28,1.18c.53-.48,1-1,1.51-1.51Zm283.19,158-.3.16c-41.3,0-82.57,1.62-123.85,2.69-16.48.42-33,.68-49.44.88A35.54,35.54,0,0,0,711,270.62q36.69-.33,73.38-.78l54.71-.68,28.93-.39,13.16-.18c3.44,0,6.36.12,9.57,1.54,4.08,1.82,4.63,7.18.38,9.08ZM793.22,413.35c-.31-1.12-.64-2.25-1-3.35,20.73-2.06,41.49-3.52,62.31-4,.39,1.31.74,2.63,1.06,4q-31.26.47-62.36,3.34Zm-58.83,54.13c6.32,12.76,18.45,21.5,32.93,21.79,14.84.28,27.56-11,33.26-23.95a1.73,1.73,0,0,0,.14-.44l3.14-.16C798.3,479,786,490.08,770.38,491.62c-16.35,1.6-30.57-9.87-37-24.12l1,0Zm40.18-2.17a2,2,0,0,0,0,.34c2.17,8.54,13.83,6.41,17.42.08a1.7,1.7,0,0,0,.68-.55l3.58-.14c-5.32,10.74-14.81,18.81-27.07,20.13-12.9,1.4-24.31-7.1-30.39-17.86q17.91-.69,35.73-2ZM749,440.89c-.67-7.86.1-18.54,9.22-20.62a93.65,93.65,0,0,1,20.3-2.56,67,67,0,0,1,2.62,16.5c0,1.76,0,3.54-.09,5.3-10.68.56-21.36,1-32,1.38Zm37.72-34.45c7.46,17.3,6.31,38.18,2.62,56.29a2.06,2.06,0,0,0-.51.64c-1.34,2.64-5.93,5-8.58,3.58a1.81,1.81,0,0,0,.62-1.06c.11-.5.21-1,.32-1.5a2.27,2.27,0,0,0,.5-2.4c2-9.75,3.69-19.6,3.4-29.58a62.75,62.75,0,0,0-3-17,2.25,2.25,0,0,0-.21-.7c-1.1-3.43-2.42-6.81-3.86-10.12,2.53-1.52,7.09-1.23,8.54.92a2.2,2.2,0,0,0,.18.88Zm-45.56,34.73c-1-10-1.05-20.88,8.95-26.22,6.76-3.62,17.46-4.3,24.87-4.5a2.06,2.06,0,0,0,1-.28c.46,1.19.89,2.38,1.3,3.58A108.31,108.31,0,0,0,765.05,415c-3,.43-7.29.49-10,2-9.18,5.17-10.94,14.33-10.1,24l-3.84.14Zm52.57,20c2.67-14.23,3.59-29.57.5-43.87q31.07-2.86,62.24-3.26c2.5,13.48,1.82,27.86-.5,41.16a448.27,448.27,0,0,1-62.24,6ZM870,408.34c-.27-1-.57-2-.89-3,12.71.26,16.25,12.63,13.78,23.87-.69.2-1.4.37-2.11.53.84-8.65-.78-20.51-10.78-21.43Zm3,22.82a92.39,92.39,0,0,0-2-18.49c6.32,2,6.47,12,5.67,17.73a1.21,1.21,0,0,0,0,.19c-1.32.23-2.57.41-3.66.57Zm19.58-134.83h-.3a10.09,10.09,0,0,0-7.07,3.42c-2.95,3.18-4.58,8.21-4.36,13.45.36,9,5.83,16.05,12.44,16.05h.3a9.47,9.47,0,0,0,5-1.64c.4,8.64.38,17.28,0,25.9-3.5-6.35-9.07-10.93-16.19-10.93l-.77,0c-14.35.7-22.92,10.9-22.92,27.31,0,14.29,9.87,25.91,22,25.91a20.14,20.14,0,0,0,14.67-6.66c-1.6,12-3.64,24-5.91,35.82a2,2,0,0,0,.12,1.21,12.67,12.67,0,0,1-2.4,1.47c1.88-13.3-4-26.95-19.39-26.27a1.31,1.31,0,0,0-.1-.32c-1.47-3.44-5.57-4.5-9-4.31-2.43.12-6.93,1.31-6.5,4.59a2.36,2.36,0,0,0,.24.75c-20.56.51-41.06,2-61.52,4-.06,0-.11,0-.16,0-.15-.38-.29-.75-.45-1.13a2.21,2.21,0,0,0-.16-1.05c-3.15-7.27-16.59-4.8-17.9,2.59-8.53.41-18.32,1.75-25.68,5.69-10.43,5.58-10.56,18.82-9.51,29.06q-8.28.24-16.56.41c.81-30.39,1.92-60.77,2-91.18,0-16.47.21-33-1.54-49.44a109.19,109.19,0,0,0-2.29-14.17c15.24-.19,30.48-.42,45.72-.79,41.95-1,83.88-2.7,125.84-2.75,1.26,4.59,3.57,8.81,5,13.34a9.18,9.18,0,0,0-2.62-.39Zm8.45,16.2a16.16,16.16,0,0,1-2.13,9,1.44,1.44,0,0,0-.47.72c-.23.3-.46.6-.71.87a6.17,6.17,0,0,1-4.26,2.13l-.17,0c-4.38,0-8.17-5.48-8.44-12.21-.17-4.19,1.06-8.15,3.3-10.56a6.24,6.24,0,0,1,4.26-2.14h.17c4.38,0,8.17,5.47,8.45,12.19Zm-35.41,55.8c0,12.71,8.08,23.06,18,23.06.25,0,.5,0,.75-.05a14.56,14.56,0,0,1-3.68.47c-9.91,0-18-9.83-18-21.91,0-5.81,1.4-18.33,12.88-22.19-5.91,3.79-10,11.59-10,20.62Zm18-19.06c7.72,0,14,8.55,14,19.06,0,.13,0,.27,0,.4-.11,1.28-.23,2.56-.35,3.85-1.42,8.46-7,14.81-13.64,14.81-7.73,0-14-8.55-14-19.06s6.28-19.06,14-19.06Zm-349.39,113c0-36.59,26.37-66.36,58.8-66.36s58.8,29.77,58.8,66.36-26.38,66.36-58.8,66.36-58.8-29.77-58.8-66.36Zm361.52-49.48c1.81-10.39,3.4-20.85,4.61-31.33a29.59,29.59,0,0,0,2.32-11.53,35.16,35.16,0,0,0-.64-6.61,301.75,301.75,0,0,0,.31-39.78,20.27,20.27,0,0,0,2.66-11.14,19.31,19.31,0,0,0-5-12.69c0-.1,0-.21,0-.33-.93-5.78-4-10.79-5.7-16.31a2,2,0,0,0,.79-1.49c3-2.18,4.92-5.84,3-9.63-1.81-3.58-5-5.49-8.54-6.45C880,236.73,861.55,212.6,842,189.87c-9.49-11.05-18.94-21.52-31-29.77-10.86-7.4-23.21-12.47-35.76-16.19-28.42-8.42-59.16-8.92-88.62-9.36a2.16,2.16,0,0,0,0-.36c-.27-3-.08-6.12-.14-9.17a29.3,29.3,0,0,0,20.34-9.11l.14-.19c15.3-1.36,31.19-2.62,45.08-9.2,5.88-2.78,4.63-6.78-.78-8.41-9.33-2.81-19.28-4-28.9-5.33-3-.42-6-.78-9-1.12-1.62-7.28-5.39-12.45-11.19-15.7C706.43,75,710.73,74,715,72.83s10.09-2.57,12.68-6.38a2,2,0,0,0-.72-2.73c-9.69-6.41-23.49-7.16-34.69-8.52a310.89,310.89,0,0,0-31.07-2.62c-20.25-.43-40.56.33-60.8.91C551.77,54.9,503,56.4,454.54,60.81,395.26,66.2,336,71.45,276.71,77.18c-9.27-15.55-24.92-27.42-43-30.33a2.06,2.06,0,0,0-1.71.48c-.73-.64-1.47-1.28-2.22-1.91-9-7.53-23.09-17.85-35.57-14.9-10,2.36-6.51,11.07-2.17,16.41,9.16,11.28,19.06,21.69,21.46,36.57l-.29,0c-26.45,2.75-53.82,4.25-79.87,9.86-1.7.37-4.07.72-4.78,2.56-1.86,4.81,10.07,7.57,12.53,8.1,19.31,4.08,39.69,1.76,59.3,1.52a13.24,13.24,0,0,0-.67,2.44l0,.19c-10.41,1.2-20.88,1.87-31.25,3.51-4.51.71-14.85,1.67-15.36,7.85a2,2,0,0,0,1,1.74c14.25,8.69,34.53,5.82,50.48,6.42a20.39,20.39,0,0,0,3.65,2.79,48.3,48.3,0,0,0,16.19,5.67q.22,4.49.56,9c-36.69,2.65-74.43-.27-107.56,18.71a1.82,1.82,0,0,0-1.61,1A259,259,0,0,0,93.6,217.9C88,236.32,82.93,255.2,78.7,274c-8.21,2-12.45,11.79-9.17,19.35a6.69,6.69,0,0,0,4.52,3.76c-3.89,23.31-9.69,46.36-14.46,69.56a17.31,17.31,0,0,0-6.74-.81,2,2,0,0,0-1.93,1.49c-2.81,15-7.07,30.22-7.32,45.58a2,2,0,0,0,1.47,1.92,18.52,18.52,0,0,0,6.33,1,2.19,2.19,0,0,0,.7-.11c-.19,2.42-.34,4.85-.47,7.3-5.24,1-9.21.65-12.25,6.14-2.87,5.18-3.71,11.47-4.16,17.28-.62,7.92-.5,21.57,8.56,24.79,12,4.28,26.14,4.24,38.73,4.49,8.75.16,21.41,1.81,29.65-2.05,9.29-4.34,10.84-14.64,12-23.8.54-4.12.65-10.44,3.54-13.79.92-1.08,3-1.56,4.63-1.93-7.39,21.35-7.16,45.6,4.51,65.35C149,520.13,168.39,533,192.52,532.3c1.29,0,2.56-.12,3.83-.24a1.73,1.73,0,0,0,.81.15c20.13-.4,41.22-2.57,58.34-14.11,15.59-10.51,24.47-27.28,26.95-45.56.69.09,1.4.17,2.11.24,3.95.38,7.92.65,11.89.88,6.77,25.23,26.68,46.31,53.86,47.43.54,0,1.07,0,1.61,0,.08,0,.15-.15.24-.15,32.76,1.66,73.84-11.61,82.74-47.67h1c22.56,0,45.83.51,68.05-3.94,7.49-1.51,19.7-4.45,20.49-13.78,3.68-17.66,4-36.25,11.15-53,3.21-7.54,8.45-14.13,17.06-15,6.76-.69,13.51-1.37,20.29-1.87,10.1-.75,20.24-1.1,30.36-.86,9.14.23,21.28.08,29.2,5.28,6.74,4.42,10.81,12.06,14.38,19,5.85,11.42,10.74,23.36,16.06,35a12.73,12.73,0,0,0-3.37,2.83c-5.28,6.21-1.37,16.49,5.36,19.66a1.9,1.9,0,0,0,1.64,1c4.08.13,8.18.24,12.27.32a.24.24,0,0,0,0,.09c-2.41,18.82-9.63,37.09-25.87,48-10.6,7.15-23.45,10.13-36.32,11.44,23-10.46,39.27-35.76,39.27-65.23,0-38.8-28.18-70.37-62.81-70.37s-62.81,31.57-62.81,70.37,28.17,70.37,62.81,70.37c1.58,0,3.14-.1,4.69-.22a1.93,1.93,0,0,0,.55.06c20.77-.42,42.94-2.69,60.2-15.31,15.56-11.36,22.05-30.77,24.72-49.13v0c9.35.16,19.41.16,29.23,0,7.44,25.12,27.58,44.79,54.67,45.77,1.4.05,2.74,0,4.11,0,33.77,0,76.93-16.3,82.69-53.88,2.51,10.3,14.45,5.21,16.48-2.59a2,2,0,0,0,.19-.56c.05-.27.09-.52.14-.79,12.24-2.47,25.72-5.05,33.24-16,6.63-9.62,2.22-22.93-8.19-27.16Z"/><path d="M246.45,125.55c-2.42-.19-6.15-.37-10.13-.89-.28-7-.95-13.93-1.54-20.89,1.49-.18,2.9-.32,4.11-.47,47-5.94,94.9-5.13,142.12-6.9l2.36-.08c1,9,2,18,2.38,27.12-31.33,1.28-62.69,1.84-94,2.64-15.08.38-30.21.63-45.26-.53Zm-28.23-10.19c-.81-3,.15-6.13,1.37-7.2a10.3,10.3,0,0,1,2.47-1.56c.43,4.94,1.44,9.8,1.78,14.76-2.79-1.42-4.89-3.34-5.62-6Zm12.6-11.08c.56,6.57,1.17,13.14,1.46,19.73a40.4,40.4,0,0,1-4.34-1.05c-.22-6-1.61-11.78-2-17.74a46.92,46.92,0,0,1,4.86-.94ZM496.54,93c25.24-.48,50.48-.76,75.73-.63.1,8,.92,15.91,1.27,23.88-58.5.58-116.76,3.87-175.18,6.6a.88.88,0,0,0,0-.17c-.28-9-.33-17.94-.35-26.91Q447.28,94,496.54,93Zm102.69,10.83c2.73,7.85-6.16,10.74-13.37,11.66-.29-7.34-.65-14.66-.74-22,6.19,1.36,12,4.29,14.11,10.35Zm-19.52,12a1.84,1.84,0,0,0-1.16.35h-1c-.36-7.93-1.17-15.83-1.27-23.77,1.54.06,3.16.17,4.82.37.08,7.69.47,15.35.77,23-.81,0-1.54.06-2.16,0Zm-185.34,6.82a1.49,1.49,0,0,0,.05.36l-4.67.2c-.37-9.07-1.39-18.07-2.39-27.1l6.66-.23c0,8.92.08,17.84.35,26.77Zm-99,7.29c33.82-.9,67.62-1.47,101.42-3,60.57-2.81,121-6.32,181.61-6.74a1.93,1.93,0,0,0,1.13-.36.69.69,0,0,0,.2,0c8.65.11,20.4-1.36,23.5-11,2.6-8-5.54-14.81-11.92-17.63-5.41-2.37-11.33-2.84-17.17-2.88-8.9-.07-17.8,0-26.7,0-17.66.06-35.33.33-53,.66C444.06,90,393.71,92,343.35,93.53c-27.82.86-55.68,1.78-83.45,3.79-11.8.85-24.1,1.48-35.59,4.54-3.79,1-8.32,2.6-9.66,6.7a12.87,12.87,0,0,0,5.51,15c8.31,5.23,20.13,5.63,29.61,6.29,15.15,1,30.41.58,45.58.2Z"/><path d="M828.07,194.15C845.19,213.09,861,233,873.28,255.41c-14.07-.21-28.13.11-42.19-.16-5.39-.09-11.6.14-13.71-5.71a2.09,2.09,0,0,0-.7-1c-5.25-11.81-12.19-22.76-19.13-33.63-10.86-17-21.84-33.9-32.31-51.12a120.46,120.46,0,0,1,36.38,6.29c11.19,3.88,18.69,15.45,26.45,24Zm-67.89-30.91c10.66,17.67,21.86,35,33,52.32,7.44,11.59,14.94,23.29,20.45,35.95a1.81,1.81,0,0,0,.6.78c2.29,4.57,6.22,6.15,11.59,6.7,16.53,1.71,33.7.11,50.29.47a3.26,3.26,0,0,0,1.72-4c-13.2-24.77-30.78-46.27-49.56-67-3.8-4.19-7.62-8.36-11.4-12.56-4-4.44-6.8-6.68-12.37-8.92-13.28-5.37-28.14-7.07-42.36-7.2a1.83,1.83,0,0,0-1.84,1.32,1.79,1.79,0,0,0-.13,2.18Z"/><path d="M760.19,394.45c-12.55,0-22.76-11.26-22.76-25.11s10.21-25.1,22.76-25.1a20.33,20.33,0,0,1,5.25.7,19.22,19.22,0,0,0-3.15-.29c-11.83,0-21.45,10.72-21.45,23.91s9.62,23.9,21.45,23.9a20.58,20.58,0,0,0,16.28-8.39,22.11,22.11,0,0,1-18.38,10.38Zm19.54-25.89c0,11-7.82,19.89-17.44,19.89s-17.44-8.93-17.44-19.89,7.82-19.9,17.44-19.9,17.44,8.92,17.44,19.9Zm-19.54-28.33c-14.76,0-26.77,13.06-26.77,29.11s12,29.12,26.77,29.12S787,385.4,787,369.34s-12-29.11-26.76-29.11Z"/><path d="M850.64,448c-.51,2.05-2.8,2.23-4.61,2.7-10.71,2.78-22.4,3.31-33.42,3.43q-3,0-6-.16c-2-.13-2.74-.08-3-1-1.43-5.22-1.4-12-.74-17.49,1.22-4.09,11.45-4.55,14.68-4.94,6.07-.72,12.2-.91,18.3-1.06,4.5-.12,13.87-2.09,15.5,3.17,1.41,4.58.43,10.91-.68,15.38Zm4-18.11c-3-6.25-10.72-4.63-16.45-4.51a202.38,202.38,0,0,0-25.34,1.75c-4.65.69-12.34,1.91-13.87,7.3a2.39,2.39,0,0,0-.07.57c-.78,6.05-1.06,14.67,1.3,20.4,1.43,3.5,8.42,2.71,11.3,2.74a183.05,183.05,0,0,0,25-1.72c4.95-.63,11.91-.91,16.11-4,4.75-3.47,4.34-17.79,2.05-22.55Z"/><path d="M743.29,165c4,1.89,7.06,5.79,10,9.06q6.06,6.81,11.6,14.06c13.77,18,25.1,37.84,35.38,58a2.46,2.46,0,0,0,.17.27c0,.08,0,.14.07.22,1.85,4.2,5,7.93-.56,8.42-3.22.28-6.46.46-9.69.66-9.51.55-19,.92-28.56,1.21s-18.76.44-28.14.32c-3.66,0-7.33-.15-11-.42-1.18-.08-2.36-.2-3.53-.37-1.43-.23-1.65-.94-1.41.22v0a2.25,2.25,0,0,0-.05-.22c-7.15-23.59-12.51-47.73-20.11-71.2-1.7-5.25-3.7-10.38-5.5-15.6-2.3-6.67,7.14-5.4,11.12-5.58,9.51-.43,19.14-1.17,28.65-.7,3.94.2,7.92,0,11.58,1.68Zm-47.45-4.63c-9.19.63-9.18,6.7-6.39,14.09,10.18,27,15.89,55.45,24.24,83l0,.08c0,.06,0,.1,0,.15.85,4.13,11.58,3.29,14.3,3.39,12.13.46,24.32.1,36.45-.28,11.08-.35,22.18-.8,33.24-1.61,2.32-.18,6.5.1,8.34-1.57,3.57-3.26-.68-9.75-2.14-13.06a2.75,2.75,0,0,0-.17-.29,1.46,1.46,0,0,0-.07-.19c-11.13-21.83-23.56-43.08-38.76-62.35a173.6,173.6,0,0,0-13.95-16c-6.42-6.35-14.05-6.45-22.58-6.56-10.81-.12-21.77.42-32.56,1.15Z"/><path d="M575.76,307.12c-1.26,6.59-24.56,4.46-28.92,4.4a102.5,102.5,0,0,1-13.22-.87c-1.68-.24-2.46-.07-2.58-1.67a19.67,19.67,0,0,1,0-3c14.83.07,29.65-.9,44.48-1a2.05,2.05,0,0,0,.37,0,7.82,7.82,0,0,1-.14,2.11ZM556,298.63c4.24,0,13.77-1,17.94,2.43-14,.12-28.08,1-42.13.95.14-.43.29-.84.46-1.23,2-1.71,6.73-1.5,9-1.68,4.89-.4,9.8-.46,14.7-.47Zm19.3-1.47c-3.87-2.56-7.83-2.4-12.25-2.48-6.83-.12-13.66-.08-20.48.32-3.65.21-9.68.06-12.82,2.63a1.71,1.71,0,0,0-.83.88,1.3,1.3,0,0,0-.08.17l-.09.19c-1.51,3.43-3.35,11.26-.49,14.12,2.66,2.65,9.56,2.15,12.88,2.33a187.09,187.09,0,0,0,23.44-.22c4.26-.31,11.14-.38,13.82-4.41,2.94-4.44,1.31-10.62-3.1-13.53Z"/><path d="M332.66,180.4c.42-5.9,3.33-8.68,9-9.79,10.55-2,22.51-.94,33.26-1.22q21.51-.57,43-1.25a2.31,2.31,0,0,0,.47-.07q19.61-.94,39.24-1.2c7.42-.08,14.86-.08,22.27.4,4.73.29,7.65,0,9.13,4.86,4.69,15.31,3.46,33.54,3.4,49.33q0,13.64-.7,27.25c-.19,4.09.88,8.75-3.88,9.71-5.3,1.08-11,.72-16.39,1h-.14c-38.39,1.4-77.13,3.49-115.54,2.7-6.19-.12-13.31-.39-19-3.22-4.2-2.09-3.47-7-3.57-10.91q-.48-20.72-.63-41.43c-.07-8.68-.53-17.48.08-26.13Zm-1,79.41c5.84,6.49,18,6.26,25.93,6.31,20.21.12,40.44-.68,60.63-1.2,17.87-.45,35.75-.89,53.61-1.53a.15.15,0,0,1,.09,0c5.1-.08,21.14,1.51,23-4.46,1.11-3.51.7-8,.87-11.64.25-5.23.4-10.45.51-15.67.42-19.27,1.3-39.89-3-58.83-.88-3.9-2.19-7.62-6.38-8.65-6.58-1.6-13.93-1.23-20.65-1.28-16.15-.14-32.34.46-48.47,1.25a1.36,1.36,0,0,0-.36.06q-23.68.73-47.35,1.36c-10.12.26-20.7-.48-30.66,1.45-9,1.77-10.86,9.5-10.95,17.61-.21,17.33.15,34.7.47,52,.12,6.16-1.91,18.12,2.66,23.2Z"/><path d="M184,174.36c12.88-.83,25.89-.88,38.78-1.36q7.45-.28,14.91-.52a1.84,1.84,0,0,0,.47-.07c12.86-.63,25.74-1.15,38.63-1.23,6.6,0,13.35-.13,19.91.8,4.38.62,4.83,3.77,5.62,7.68-43.15,1.87-86.31,3.22-129.49,3.72.23-1.06.46-2.13.72-3.18,1.29-5.28,5.66-5.53,10.45-5.84Zm-12,13c43.72-.48,87.41-1.86,131.08-3.76.28,1.66.52,3.33.73,5-44.2,1.95-88.45,2.31-132.68,3.29.28-1.53.58-3,.87-4.54Zm-2.36,12.31c.25-1.24.49-2.5.73-3.75,44.63-1,89.28-1.34,133.88-3.31.58,6.14.78,12.36.82,18.57-46.13,2-92.3,2.38-138.45,3.43,1-5,2-10,3-14.94Zm-3.82,19c46.42-1.06,92.86-1.44,139.26-3.44,0,1.68,0,3.35,0,5-46.71,2-93.47,2.38-140.21,3.48q.48-2.53,1-5.07Zm-1.75,9.09c47-1.1,94-1.46,140.93-3.49q0,2.49-.06,4.95c0,3.86-.11,7.74-.22,11.61-47.83,1.28-95.65,2.62-143.48,3.67.06-.32.11-.61.14-.84.79-5.31,1.71-10.62,2.69-15.9Zm-3.57,20.76c48-1,96.06-2.39,144.08-3.68-.06,1.68-.13,3.36-.2,5-48.2,1.3-96.41,2.65-144.61,3.69.18-1.74.46-3.47.73-5Zm139.88,14.25c-5.3,1.07-11,.72-16.39,1h-.11q-32.2,1.18-64.43,2c-10.33.28-20.66.56-31,.7-3,0-6,0-9-.1-5.18-.2-14.16.42-18.39-3.32-1.1-1-1.5-3-1.53-5.41,48.23-1.06,96.45-2.4,144.67-3.7l0,.56c-.19,3.87.65,7.41-3.81,8.32Zm-141.7,3.45c6,5.3,18.81,4.24,26.08,4.24,21.85,0,43.73-1,65.57-1.63q17-.51,34-1.1h.05c5.58-.14,19.6,1.56,22.86-4,1.38-2.36.79-6.65.93-9.28,0-.27,0-.53,0-.8a2.07,2.07,0,0,0,.16-3.69q.12-2.78.21-5.55a2.13,2.13,0,0,0,.11-3.3c0-.63,0-1.24,0-1.87.14-5.29.27-10.6.32-16a2.19,2.19,0,0,0,0-2.37c0-2.22,0-4.45,0-6.68a2.21,2.21,0,0,0,0-2.43,223.25,223.25,0,0,0-2.39-30.65c-.6-3.79-1.32-9.64-4.94-11.91-4.21-2.65-11.8-1.89-16.46-2-15.88-.4-31.8.42-47.65,1.19a2.26,2.26,0,0,0-.39.07c-14.57.47-29.13,1.24-43.7,1.62-7,.18-19.05-1.61-22.84,6.18-1.83,3.75-2.11,8.4-2.91,12.45-1.92,9.7-3.93,19.41-5.82,29.12-.4,2-.79,4-1.18,6a2.08,2.08,0,0,0-.68,3.51c-1.12,5.86-2.16,11.75-2.95,17.66a2.18,2.18,0,0,0-.35,2.63c-.15,1.25-.29,2.49-.41,3.75-.09.84-.19,1.78-.28,2.75a2.18,2.18,0,0,0-.18,2.69c-.13,3.52.3,7.15,2.75,9.32Z"/><path d="M735.24,329.07h-1.69c-.57-6.68-.6-12.73-.88-18.94.52,0,1,.09,1.55.06.39,6.24.26,12.2,1,18.88Zm11.18-19.42a124.23,124.23,0,0,1,.57,18.6c-2.58.09-5.16.13-7.74.15-.76-6.23-.64-12.53-1-18.79,2.73,0,5.47,0,8.2,0Zm4.51,20.54a124.62,124.62,0,0,0-.7-22.52,2,2,0,0,0-2-2c-5.72,0-11.48-.28-17.19.22a2.74,2.74,0,0,0-.43.08,1.79,1.79,0,0,0-2,1.93c.41,7.5.31,15,1.16,22.53a2,2,0,0,0,2,2c5.73,0,11.46,0,17.19-.24a2,2,0,0,0,2-2Z"/></svg>