<svg xmlns="http://www.w3.org/2000/svg" viewBox="130 232 785 106" role="img" aria-label="Lightboard"><title>Lightboard</title><style>.cls-1{fill:#27cfdc}.cls-2{fill:#dadb65}</style><path class="cls-1" d="M154.48,239.25v75.31h42v19.71H149.27l-14.64-17.74V239.25Z"/><path class="cls-1" d="M227.52,238.13v95.16l-19.85-17.74V238.13Z"/><path class="cls-1" d="M306.75,242.78,297.18,260A25.51,25.51,0,0,0,268.32,266a28.77,28.77,0,0,0,0,39.27,25.05,25.05,0,0,0,18.58,8,24.62,24.62,0,0,0,18.58-8,28.92,28.92,0,0,0,6-9.85H290.7l10.84-19.85h30.12a48.85,48.85,0,0,1,1,10.14,47,47,0,0,1-6.19,23.79A45.37,45.37,0,0,1,309.7,327a44.52,44.52,0,0,1-46-.14,48.65,48.65,0,0,1-16.89-17.31,50,50,0,0,1-6.05-23.93,49,49,0,0,1,6.05-23.79,48.05,48.05,0,0,1,16.89-17.46A42.93,42.93,0,0,1,286.76,238,42.31,42.31,0,0,1,306.75,242.78Z"/><path class="cls-1" d="M365.85,238.83v35.48h36.88V238.83h19.84v76.86l-19.84,17.74V294H365.85v39.42L346,315.55V238.83Z"/><path class="cls-1" d="M510.38,238.83v19.85H484.62V334l-19.85-17.74V258.68h-26V238.83Z"/><path class="cls-2" d="M582.7,244.75c5.63,4.65,8.73,11.12,9.15,19.28a27.07,27.07,0,0,1-5.07,17.6,11,11,0,0,1,2.39,2.67c4.51,5.78,6.48,12.67,6.06,20.56a27,27,0,0,1-3,11.12,38,38,0,0,1-6.76,8.86,28.62,28.62,0,0,1-11,6.06,63.11,63.11,0,0,1-14.07,1.41H540.05l-14.5-17.74V238h37.58A29.83,29.83,0,0,1,582.7,244.75Zm-37.3,28.43h14.78c8.16,0,12.1-2.53,12.1-7.6.14-3.09-.84-5.21-2.95-6.19-1.83-1.13-4.93-1.69-9.44-1.69H545.4Zm0,39h17.73c3.66,0,6.62-.85,8.59-2.54a8.47,8.47,0,0,0,3.38-6.9c0-3.37-1.13-5.77-3.38-7.32s-5.21-2.53-9.29-2.53h-17Z"/><path class="cls-2" d="M674.9,325l4.89-12.39,14.23-40a45.47,45.47,0,0,0-4.62-11.25,43.31,43.31,0,0,0-16.61-17.46,45.26,45.26,0,0,0-46.17,0,46.94,46.94,0,0,0-16.9,17.46,49,49,0,0,0-6.05,23.79,49.93,49.93,0,0,0,6.05,23.93,47.49,47.49,0,0,0,16.9,17.31,44.93,44.93,0,0,0,46,0C673.42,325.94,674.16,325.46,674.9,325Zm-25.06-12.09c-7.18,0-13.37-2.82-18.58-8.16a27.92,27.92,0,0,1-7.74-19.57,27.44,27.44,0,0,1,7.74-19.57,24.68,24.68,0,0,1,18.58-8.16,24.12,24.12,0,0,1,18.58,8,28.79,28.79,0,0,1,0,39.28A24.78,24.78,0,0,1,649.84,312.88Z"/><path class="cls-2" d="M748,238.56l26.89,76-14.5,17.74-7.89-20.84H719.54l-7.88,20.84-14.5-17.74,26.75-76ZM725.6,292.19h20.55l-10.14-29Z"/><path class="cls-2" d="M808.91,291.62c6.33-5.49,9.43-13.65,9.43-24.63q0-14.78-8.87-22c-5.91-5.07-14.5-7.46-25.76-7.46H765.54l8.18,19.71h8.87a28.45,28.45,0,0,1,7,.84,13,13,0,0,1,6.06,3.38,7.81,7.81,0,0,1,2.67,6.34c0,3.51-1.69,6.47-5.07,8.72a17.07,17.07,0,0,1-10.41,3.38h-1.32l16.32,43.17,3.58,9.2,14.36-17.6-8.45-21.82A11,11,0,0,1,808.91,291.62Z"/><path class="cls-2" d="M860.83,238q22.8,0,35.47,12.25c8.45,8,12.67,19.42,12.67,34.06,0,15.49-4.36,27.31-13.09,35.62-8.73,8.16-21.4,12.39-37.87,12.39H846.19l-14.64-17.88V238Zm-9.43,74.47h9.85c9.29-.28,16.19-2.4,20.55-6.62,4.51-4.22,6.62-11.26,6.62-21.11s-2.11-16.89-6.48-21-10.83-6.05-20-6.05H851.4Z"/></svg>