<?xml version="1.0" encoding="utf-8"?>
<svg xmlns="http://www.w3.org/2000/svg" viewBox="0 0 75.4 75.4" role="img" aria-label="WhatsApp">
  <path fill="#25D366" d="M37.8,3.7L37.8,3.7C37.7,3.7,37.7,3.7,37.8,3.7c-18.8,0-34.1,15.3-34.1,34c0,7,2.1,13.7,6.1,19.5L5.9,68.8 c-0.1,0.4,0,0.9,0.3,1.2c0.3,0.3,0.7,0.4,1.2,0.3l12.1-3.9c5.5,3.5,11.8,5.3,18.3,5.3c18.8,0,34-15.3,34-34S56.5,3.7,37.8,3.7z"/>
  <path fill="#FFFFFF" d="M37.7,7.7c-16.5,0-30,13.5-30,30c0,6.2,1.9,12.1,5.4,17.2L9.7,65.2c-0.1,0.4,0,0.8,0.2,1c0.3,0.3,0.7,0.4,1,0.2 L21.6,63c4.8,3.1,10.4,4.7,16.1,4.7c16.5,0,30-13.5,30-30S54.3,7.7,37.7,7.7L37.7,7.7C37.7,7.7,37.7,7.7,37.7,7.7z M37.7,9.7 L37.7,9.7c15.5,0,28,12.6,28,28s-12.6,28-28,28c-5.5,0-10.8-1.6-15.4-4.6c-0.2-0.1-0.4-0.2-0.6-0.2c-0.1,0-0.2,0-0.3,0l-9.3,3l3-8.9 c0.1-0.3,0.1-0.6-0.1-0.9c-3.5-4.8-5.3-10.5-5.3-16.4C9.7,22.3,22.3,9.7,37.7,9.7z M38.9,13.7c-2.3-0.1-4.6,0.2-6.8,0.8 c-0.5,0.1-0.9,0.7-0.7,1.2c0.1,0.5,0.7,0.9,1.2,0.7c4.1-1.1,8.4-0.9,12.4,0.4c1,0.3,2.1,0.8,3,1.3c0.1,0.1,0.3,0.1,0.5,0.1 c0.4,0,0.7-0.2,0.9-0.6c0.2-0.5,0.1-1.1-0.4-1.3c-1.1-0.5-2.2-1-3.3-1.4C43.5,14.1,41.2,13.7,38.9,13.7z M52.3,18.7 c-0.3,0-0.5,0.2-0.7,0.4c-0.3,0.4-0.3,1.1,0.2,1.4c0.6,0.5,1.2,1,1.8,1.6c0.2,0.2,0.4,0.3,0.7,0.3c0.3,0,0.5-0.1,0.7-0.3 c0.4-0.4,0.4-1,0-1.4c-0.6-0.6-1.3-1.2-1.9-1.7C52.9,18.7,52.6,18.7,52.3,18.7z M28,22.7c-1.4,0-2.6,0.4-3.4,1.3 c-0.9,0.9-2.9,2.9-2.9,6.9c0,3.4,2,6.7,3.3,8.4l0.1,0.2c3.8,5.5,8.4,9.5,13.1,11.5c4.2,1.7,6.4,2.2,7.9,2.2c0.7,0,1.2-0.1,1.7-0.2 c2.2-0.5,5.1-2.2,5.8-4.3c0.6-1.8,0.8-3.7,0.4-4.4c-0.3-0.5-0.8-0.8-1.4-1.1L52.2,43c0,0-4.4-2.2-5.2-2.5c-1.2-0.4-2.3-0.1-3,0.9 l-0.3,0.5C43,42.8,42.5,43.5,42,44c-0.1,0.1-0.4,0.2-0.7,0.1L41.1,44c-1-0.4-3-1.2-5.5-3.5c-2-1.8-3.5-4.1-4-5 c0-0.1-0.1-0.1-0.1-0.1c0-0.1,0.2-0.2,0.3-0.4c0.2-0.2,0.4-0.5,0.6-0.7c0.2-0.2,0.3-0.4,0.5-0.6l0.1-0.1c0.3-0.4,0.6-0.7,0.9-1.3 c0.5-1,0.1-2-0.1-2.3c-0.1-0.3-1-2.5-1.6-3.9l-0.7-1.6c-0.6-1.5-1.4-1.8-2.5-1.9C28.7,22.7,28.3,22.7,28,22.7z M28,24.7 c0.3,0,0.6,0,0.8,0c0.1,0,0.4,0,0.4,0c0,0,0.1,0.1,0.4,0.6l0.7,1.6c0.9,2.2,1.5,3.7,1.7,4c0.1,0.3,0.2,0.4,0.1,0.5 c-0.2,0.4-0.3,0.5-0.6,0.9l-0.1,0.1c-0.1,0.2-0.3,0.3-0.4,0.5c-0.2,0.2-0.5,0.5-0.7,0.8c-0.4,0.4-1.2,1.4-0.4,2.7 c0.7,1.2,2.2,3.5,4.4,5.5c2.8,2.5,5.1,3.4,6.1,3.8l0.2,0.1c1.1,0.4,2.2,0.2,2.9-0.5c0.5-0.6,1.1-1.4,1.8-2.3l0.3-0.5 c0.2-0.3,0.4-0.3,0.7-0.2c0.6,0.2,3.8,1.8,5,2.4l0.4,0.2c0.2,0.1,0.5,0.2,0.5,0.2c0,0.4,0,1.4-0.5,2.8c-0.5,1.3-2.6,2.6-4.3,3 c-1,0.2-2.6,0.6-8.5-1.9c-4.4-1.8-8.7-5.6-12.3-10.8c-0.1-0.1-0.2-0.2-0.2-0.3c-1.1-1.4-2.8-4.3-2.8-7.2c0-3.2,1.5-4.8,2.4-5.6 C26.5,24.9,27.2,24.7,28,24.7z M15.3,36.6c-0.6,0-1,0.4-1.1,0.9c0,0.6,0.4,1,0.9,1.1l2.1,0.1c0,0,0,0,0.1,0c0.5,0,1-0.4,1-0.9 c0-0.6-0.4-1-0.9-1.1L15.3,36.6z M17.8,42c-0.1,0-0.3,0-0.4,0l-2,0.4c-0.5,0.1-0.9,0.6-0.8,1.2c0.1,0.5,0.5,0.8,1,0.8 c0.1,0,0.1,0,0.2,0l2-0.4c0.5-0.1,0.9-0.6,0.8-1.2C18.6,42.4,18.2,42.1,17.8,42z M19.3,47c-0.1,0-0.3,0-0.4,0.1L17.1,48 c-0.5,0.2-0.7,0.8-0.4,1.3c0.2,0.4,0.5,0.6,0.9,0.6c0.1,0,0.3,0,0.4-0.1l1.9-0.9c0.5-0.2,0.7-0.8,0.4-1.3 C20.1,47.2,19.7,46.9,19.3,47z M22.4,51.3c-0.3,0-0.5,0.1-0.7,0.3L20.1,53c-0.4,0.4-0.4,1-0.1,1.4c0.2,0.2,0.5,0.3,0.7,0.3 c0.2,0,0.5-0.1,0.7-0.3l1.5-1.4c0.4-0.4,0.4-1,0.1-1.4C22.9,51.5,22.7,51.4,22.4,51.3z M26.5,54.8c-0.4-0.1-0.8,0.1-1,0.4L24.4,57 c-0.3,0.5-0.2,1.1,0.3,1.4c0.2,0.1,0.4,0.2,0.6,0.2c0.3,0,0.6-0.2,0.8-0.5l1.1-1.7c0.3-0.5,0.2-1.1-0.3-1.4 C26.8,54.9,26.6,54.8,26.5,54.8z"/>
</svg>
